<svg width="26" height="40" viewBox="0 0 26 40" fill="none" xmlns="http://www.w3.org/2000/svg">
<path d="M6.5 39.5C10.088 39.5 13 36.588 13 33V26.5H6.5C2.912 26.5 0 29.412 0 33C0 36.588 2.912 39.5 6.5 39.5Z" fill="#0ACF83"/>
<path d="M0 20C0 16.412 2.912 13.5 6.5 13.5H13V26.5H6.5C2.912 26.5 0 23.588 0 20Z" fill="#A259FF"/>
<path d="M0 7C0 3.412 2.912 0.5 6.5 0.5H13V13.5H6.5C2.912 13.5 0 10.588 0 7Z" fill="#F24E1E"/>
<path d="M13 0.5H19.5C23.088 0.5 26 3.412 26 7C26 10.588 23.088 13.5 19.5 13.5H13V0.5Z" fill="#FF7262"/>
<path d="M26 20C26 23.588 23.088 26.5 19.5 26.5C15.912 26.5 13 23.588 13 20C13 16.412 15.912 13.5 19.5 13.5C23.088 13.5 26 16.412 26 20Z" fill="#1ABCFE"/>
</svg>
