<svg width="33" height="33" viewBox="0 0 33 33" fill="none" xmlns="http://www.w3.org/2000/svg">
<g clip-path="url(#clip0_113_134)">
<path d="M32.3778 15.0296L17.9695 0.622418C17.1404 -0.207473 15.7945 -0.207473 14.9643 0.622418L11.9724 3.6143L15.7677 7.40963C16.6497 7.11164 17.661 7.31151 18.3642 8.01467C19.0706 8.72218 19.269 9.74216 18.9638 10.6271L22.6215 14.2848C23.5065 13.98 24.5275 14.1773 25.2343 14.8852C26.2221 15.8726 26.2221 17.473 25.2343 18.4611C24.2462 19.4492 22.6458 19.4492 21.6573 18.4611C20.9143 17.7174 20.7308 16.626 21.107 15.7107L17.6958 12.2995L17.6954 21.2763C17.9362 21.3957 18.1636 21.5547 18.3642 21.7546C19.3519 22.742 19.3519 24.3424 18.3642 25.3312C17.3761 26.319 15.775 26.319 14.7883 25.3312C13.8005 24.3424 13.8005 22.742 14.7883 21.7546C15.0323 21.5109 15.3147 21.3266 15.616 21.2028V12.1424C15.3147 12.0193 15.0327 11.8361 14.7883 11.5906C14.0399 10.8432 13.8599 9.74506 14.2433 8.82609L10.5023 5.08435L0.622933 14.963C-0.207319 15.7936 -0.207319 17.1395 0.622933 17.9694L15.0312 32.3769C15.8608 33.2068 17.2063 33.2068 18.0369 32.3769L32.3778 18.0364C33.2077 17.2061 33.2077 15.8595 32.3778 15.0296Z" fill="#DE4C36"/>
</g>
<defs>
<clipPath id="clip0_113_134">
<rect width="33" height="33" fill="white"/>
</clipPath>
</defs>
</svg>
