<svg width="33" height="35" viewBox="0 0 33 35" fill="none" xmlns="http://www.w3.org/2000/svg">
<path d="M33 0.825562L30.0192 31.4465L16.6205 34.8528L3.25864 31.4513L0.281006 0.825562H33Z" fill="#E44D26"/>
<path d="M16.6404 32.2492L27.4672 29.4967L30.0145 3.32965H16.6404V32.2492Z" fill="#F16529"/>
<path d="M10.8459 10.842H16.6404V7.08588H6.36938L6.46743 8.09359L7.47417 18.4444H16.6404V14.6884H11.2202L10.8459 10.842Z" fill="#EBEBEB"/>
<path d="M11.769 20.3225H7.65723L8.23109 26.2202L16.6216 28.3561L16.6404 28.3513V24.4434L16.6225 24.4477L12.0607 23.3182L11.769 20.3225Z" fill="#EBEBEB"/>
<path d="M16.6262 18.4444H21.6701L21.1946 23.3158L16.6262 24.4465V28.3543L25.0234 26.2202L25.085 25.5856L26.0475 15.6969L26.1475 14.6883H16.6262V18.4444Z" fill="white"/>
<path d="M16.6262 10.8329V10.842H26.5202L26.6024 9.99777L26.789 8.09359L26.887 7.08588H16.6262V10.8329Z" fill="white"/>
</svg>
