<svg width="33" height="35" viewBox="0 0 33 35" fill="none" xmlns="http://www.w3.org/2000/svg">
<path d="M32.719 0L29.7382 30.621L16.3395 34.0272L2.97763 30.6258L0 0H32.719Z" fill="#F4CB0B"/>
<path d="M16.3594 31.4236L27.1862 28.6711L29.7335 2.50409H16.3594V31.4236Z" fill="#FFDF00"/>
<path d="M10.1118 19.4969H6L6.57386 25.3946L14.9644 27.5305L14.9832 27.5257V23.6178L14.9653 23.6222L10.4034 22.4926L10.1118 19.4969Z" fill="#EBEBEB"/>
<path d="M17 17.6188H22.0439L21.5684 22.4902L17 23.6209V27.5287L25.3972 25.3946L25.4588 24.76L26.4213 14.8714L26.5213 13.8627H17V17.6188Z" fill="white"/>
<path d="M17 10.0073V10.0165H26.894L26.9762 9.17221L27.1628 7.26803L27.2607 6.26031H17V10.0073Z" fill="white"/>
<path d="M19.9927 16L20 16L20 8.28595L19.3257 8.22188L17.8048 8.07638L17 8L17 16L19.9927 16Z" fill="white"/>
<rect x="12" y="6" width="3" height="18" fill="#EBEBEB"/>
</svg>
