<svg width="32" height="34" viewBox="0 0 32 34" fill="none" xmlns="http://www.w3.org/2000/svg">
<path d="M15.8796 33.8223L2.89382 30.5165L0 0.752808H31.798L28.9012 30.5119L15.8796 33.8223Z" fill="#264DE4"/>
<path d="M26.4213 28.617L28.8968 3.18652H15.8992V31.292L26.4213 28.617Z" fill="#2965F1"/>
<path d="M6.63403 14.2254L6.99082 17.8758H15.899V14.2254H6.63403Z" fill="#EBEBEB"/>
<path d="M5.91724 6.83691L6.27911 10.4874H15.8992V6.83691H5.91724Z" fill="#EBEBEB"/>
<path d="M15.8991 23.7059L15.8816 23.7101L11.4482 22.6124L11.1648 19.701H7.1687L7.72641 25.4326L15.8807 27.5085L15.8991 27.5038V23.7059Z" fill="#EBEBEB"/>
<path d="M25.1388 14.2254L25.8574 6.83691H15.8855V10.4874H21.4948L21.1326 14.2254H15.8855V17.8758H20.7874L20.3253 22.6101L15.8855 23.7089V27.5067L24.0463 25.4327L24.1062 24.8159L25.0416 15.2056L25.1388 14.2254Z" fill="white"/>
</svg>
