<svg width="148" height="38" viewBox="0 0 148 38" fill="none" xmlns="http://www.w3.org/2000/svg">
<path d="M40.4166 37.6279H3.84888V28.7867H13.472V32.5758H32.7182V2.26306H40.4166V37.6279Z" fill="url(#paint0_linear_13_50)"/>
<path fill-rule="evenodd" clip-rule="evenodd" d="M54.8513 37.6279V2.26306H91.4191V32.5758H62.5498V37.6279H54.8513ZM83.7206 27.5237H62.5498V7.31519H83.7206V27.5237Z" fill="url(#paint1_linear_13_50)"/>
<path d="M105.854 2.26306V37.6279H113.552V7.31519H120.288V37.6279H127.987V7.31519H134.723V37.6279H142.422V2.26306H105.854Z" fill="url(#paint2_linear_13_50)"/>
<path d="M116.68 36.365H108.982V1.00012H145.549V36.365H137.851V5.42073H131.115V36.2616H123.416V5.42073H116.68V36.365Z" stroke="#F7A74F" stroke-width="1.92462"/>
<path d="M65.6777 11.5V5.42073H86.8485V11.5M65.6777 11.5V26.2607H86.8485V11.5M65.6777 11.5H86.8485M57.9792 36.365H65.6777V31.3129H94.547V1.00012H57.9792V36.365Z" stroke="#F7A74F" stroke-width="1.92462"/>
<path d="M43.5441 36.365H6.97632V27.5238H16.5994V31.3129H35.8456V1.00012H43.5441V36.365Z" stroke="#F7A74F" stroke-width="1.92462"/>
<g clip-path="url(#clip0_13_50)">
<rect x="4" y="9" width="142.52" height="9" fill="white"/>
<path d="M5.67143 15V11.2102L5.59683 10.6133H9.05841C9.46127 10.6133 9.76963 10.6631 9.98349 10.7625C10.2023 10.862 10.354 11.0112 10.4386 11.2102C10.5231 11.4041 10.5654 11.6478 10.5654 11.9413V13.6646C10.5654 13.963 10.5231 14.2117 10.4386 14.4106C10.359 14.6046 10.2098 14.7513 9.99095 14.8508C9.77709 14.9503 9.46624 15 9.05841 15H5.67143ZM6.65619 14.2838H8.99873C9.38169 14.2838 9.57566 14.1072 9.58063 13.7541V11.8517C9.58063 11.7075 9.53836 11.5857 9.45381 11.4862C9.36926 11.3817 9.21756 11.3295 8.99873 11.3295H6.65619V14.2838ZM12.428 15V10.6133H17.0683V11.3295H13.4127V12.359H16.2029V13.0976H13.4127V14.2838H17.0981L17.3965 14.9179C17.3965 14.9378 17.3294 14.9577 17.1951 14.9776C17.0608 14.9925 16.8296 15 16.5013 15H12.428ZM19.796 15C19.4578 15 19.2091 14.9851 19.0499 14.9552C18.8908 14.9254 18.8112 14.8906 18.8112 14.8508L19.1096 14.2017C19.224 14.2216 19.5075 14.2415 19.9601 14.2614C20.4177 14.2763 21.0443 14.2838 21.8401 14.2838H21.9818C22.1957 14.2838 22.3474 14.2465 22.4369 14.1719C22.5264 14.0923 22.5712 13.9605 22.5712 13.7765V13.6273C22.5712 13.4532 22.5339 13.3289 22.4593 13.2543C22.3897 13.1797 22.2305 13.1424 21.9818 13.1424H20.251C19.7487 13.1424 19.3832 13.0504 19.1544 12.8663C18.9256 12.6774 18.8112 12.3715 18.8112 11.9487V11.8294C18.8112 11.6105 18.851 11.4091 18.9306 11.2251C19.0151 11.0411 19.1569 10.8943 19.3558 10.7849C19.5547 10.6705 19.8283 10.6133 20.1764 10.6133H22.2056C22.5438 10.6133 22.8174 10.6307 23.0263 10.6656C23.2352 10.7004 23.3396 10.7377 23.3396 10.7775L23.1904 11.4041C23.0611 11.3892 22.7677 11.3743 22.3101 11.3594C21.8525 11.3395 21.2383 11.3295 20.4674 11.3295L20.3853 11.3221C20.1565 11.3221 20.0024 11.3693 19.9228 11.4638C19.8432 11.5533 19.8009 11.6677 19.796 11.807V11.9338C19.796 12.0979 19.8407 12.2223 19.9302 12.3068C20.0247 12.3864 20.1789 12.4262 20.3928 12.4262H22.049C22.3673 12.4262 22.6383 12.4585 22.8622 12.5232C23.086 12.5878 23.2575 12.7072 23.3769 12.8813C23.4963 13.0504 23.556 13.3015 23.556 13.6348V13.7541C23.556 14.1271 23.459 14.428 23.265 14.6568C23.076 14.8856 22.7453 15 22.2728 15H19.796ZM25.42 15V10.6133H30.0603V11.3295H26.4048V12.359H29.1949V13.0976H26.4048V14.2838H30.0901L30.3886 14.9179C30.3886 14.9378 30.3214 14.9577 30.1871 14.9776C30.0528 14.9925 29.8216 15 29.4933 15H25.42ZM32.027 15V11.2102L31.9524 10.6133H33.0267L35.5632 13.2692L35.8542 13.6721H35.9362V10.6133H36.921V15H35.9735L33.3773 12.2994L33.0864 11.9487H33.0118V15H32.027ZM40.4958 15L38.4143 10.6208H39.4588L40.8613 13.6422L41.0628 14.1794H41.1299L41.3239 13.6422L42.7413 10.6208H43.7559L43.6366 11.0684L41.6894 15H40.4958ZM46.3954 15C46.0472 15 45.7737 14.9503 45.5747 14.8508C45.3758 14.7513 45.234 14.6021 45.1495 14.4032C45.0699 14.2042 45.0301 13.958 45.0301 13.6646V11.9413C45.0301 11.6528 45.0699 11.4116 45.1495 11.2176C45.2291 11.0187 45.3683 10.8695 45.5673 10.77C45.7662 10.6656 46.0422 10.6133 46.3954 10.6133H48.5738C48.9219 10.6133 49.193 10.6656 49.387 10.77C49.5859 10.8695 49.7252 11.0187 49.8047 11.2176C49.8893 11.4116 49.9316 11.6528 49.9316 11.9413V13.6646C49.9316 14.1023 49.8346 14.4355 49.6406 14.6643C49.4466 14.8881 49.091 15 48.5738 15H46.3954ZM46.6117 14.2838H48.3649C48.5489 14.2838 48.6907 14.2366 48.7901 14.1421C48.8946 14.0476 48.9468 13.9183 48.9468 13.7541V11.8517C48.9468 11.7075 48.8946 11.5857 48.7901 11.4862C48.6857 11.3817 48.5439 11.3295 48.3649 11.3295H46.6117C46.4327 11.3295 46.2884 11.3768 46.179 11.4713C46.0696 11.5658 46.0149 11.6926 46.0149 11.8517V13.7541C46.0149 13.9232 46.0671 14.055 46.1716 14.1495C46.281 14.239 46.4277 14.2838 46.6117 14.2838ZM51.8703 15L51.9449 14.4032V10.6133H52.9297V14.2838L56.0182 14.2838L56.3166 14.9179C56.3166 14.9378 56.2495 14.9577 56.1152 14.9776C55.9809 14.9925 55.7497 15 55.4214 15L51.8703 15ZM58.4684 15L56.387 10.6208H57.4314L58.834 13.6422L59.0354 14.1794H59.1026L59.2965 13.6422L60.714 10.6208H61.7286L61.6092 11.0684L59.6621 15H58.4684ZM63.2231 15V10.6133H67.8634V11.3295H64.2079V12.359H66.998V13.0976H64.2079V14.2838H67.8933L68.1917 14.9179C68.1917 14.9378 68.1245 14.9577 67.9902 14.9776C67.856 14.9925 67.6247 15 67.2964 15H63.2231ZM69.8301 15V11.2102L69.7555 10.6133H73.2171C73.62 10.6133 73.9283 10.6631 74.1422 10.7625C74.361 10.862 74.5127 11.0112 74.5973 11.2102C74.6818 11.4041 74.7241 11.6478 74.7241 11.9413V13.6646C74.7241 13.963 74.6818 14.2117 74.5973 14.4106C74.5177 14.6046 74.3685 14.7513 74.1497 14.8508C73.9358 14.9503 73.6249 15 73.2171 15H69.8301ZM70.8149 14.2838H73.1574C73.5404 14.2838 73.7344 14.1072 73.7393 13.7541V11.8517C73.7393 11.7075 73.6971 11.5857 73.6125 11.4862C73.528 11.3817 73.3763 11.3295 73.1574 11.3295H70.8149V14.2838ZM77.8773 15C77.5292 15 77.2556 14.9503 77.0567 14.8508C76.8577 14.7513 76.716 14.6021 76.6314 14.4032C76.5519 14.2042 76.5121 13.958 76.5121 13.6646V11.9413C76.5121 11.6528 76.5519 11.4116 76.6314 11.2176C76.711 11.0187 76.8503 10.8695 77.0492 10.77C77.2482 10.6656 77.5242 10.6133 77.8773 10.6133H80.0557C80.4039 10.6133 80.6749 10.6656 80.8689 10.77C81.0678 10.8695 81.2071 11.0187 81.2867 11.2176C81.3712 11.4116 81.4135 11.6528 81.4135 11.9413V13.6646C81.4135 14.1023 81.3165 14.4355 81.1225 14.6643C80.9286 14.8881 80.573 15 80.0557 15H77.8773ZM78.0937 14.2838H79.8468C80.0308 14.2838 80.1726 14.2366 80.2721 14.1421C80.3765 14.0476 80.4287 13.9183 80.4287 13.7541V11.8517C80.4287 11.7075 80.3765 11.5857 80.2721 11.4862C80.1676 11.3817 80.0259 11.3295 79.8468 11.3295H78.0937C77.9146 11.3295 77.7704 11.3768 77.661 11.4713C77.5515 11.5658 77.4968 11.6926 77.4968 11.8517V13.7541C77.4968 13.9232 77.5491 14.055 77.6535 14.1495C77.7629 14.239 77.9096 14.2838 78.0937 14.2838ZM88.1194 15.0746C87.9204 15.0746 87.724 15.0448 87.53 14.9851C87.341 14.9204 87.1247 14.7662 86.881 14.5225L86.3438 13.9854C86.125 13.7616 85.8838 13.5975 85.6202 13.493C85.3616 13.3886 85.0358 13.3363 84.6429 13.3363H84.4116V15H83.4269V11.2102L83.3522 10.6059H86.6572C86.9755 10.6059 87.2242 10.6481 87.4032 10.7327C87.5872 10.8173 87.7215 10.9292 87.8061 11.0684C87.8956 11.2027 87.9528 11.3469 87.9776 11.5011C88.0025 11.6553 88.0149 11.802 88.0149 11.9413V12.083C88.0149 12.1924 88 12.3143 87.9702 12.4486C87.9403 12.5829 87.8831 12.7147 87.7986 12.844C87.714 12.9733 87.5922 13.0827 87.433 13.1722C87.2789 13.2617 87.0749 13.314 86.8213 13.3289C86.886 13.3637 86.968 13.4184 87.0675 13.493C87.167 13.5626 87.2689 13.6397 87.3734 13.7243C87.4828 13.8088 87.5822 13.8859 87.6718 13.9556C87.7613 14.0252 87.8309 14.0749 87.8807 14.1048C88.0597 14.2092 88.2189 14.2813 88.3581 14.3211C88.4974 14.3609 88.6118 14.3833 88.7013 14.3883C88.7908 14.3932 88.843 14.3957 88.858 14.3957L88.7088 15C88.664 15.0149 88.5894 15.0298 88.4849 15.0448C88.3805 15.0647 88.2587 15.0746 88.1194 15.0746ZM85.5307 12.6575C85.7197 12.6575 85.8888 12.655 86.038 12.65C86.1872 12.6401 86.3215 12.6301 86.4408 12.6202C86.6597 12.5953 86.8113 12.5356 86.8959 12.4411C86.9854 12.3416 87.0302 12.2148 87.0302 12.0606V11.889C87.0302 11.7299 86.9879 11.5956 86.9034 11.4862C86.8188 11.3768 86.6671 11.3221 86.4483 11.3221H84.4116V12.6202C84.6305 12.6351 84.8319 12.645 85.0159 12.65C85.1999 12.655 85.3715 12.6575 85.5307 12.6575ZM92.8854 15V11.2102L92.8108 10.6133L97.4661 10.6133V11.3295H93.8702V12.4187H96.6603V13.1573H93.8702V15H92.8854ZM103.797 15.0746C103.598 15.0746 103.402 15.0448 103.208 14.9851C103.019 14.9204 102.802 14.7662 102.559 14.5225L102.022 13.9854C101.803 13.7616 101.562 13.5975 101.298 13.493C101.039 13.3886 100.714 13.3363 100.321 13.3363H100.089V15H99.1046V11.2102L99.03 10.6059H102.335C102.653 10.6059 102.902 10.6481 103.081 10.7327C103.265 10.8173 103.399 10.9292 103.484 11.0684C103.573 11.2027 103.631 11.3469 103.655 11.5011C103.68 11.6553 103.693 11.802 103.693 11.9413V12.083C103.693 12.1924 103.678 12.3143 103.648 12.4486C103.618 12.5829 103.561 12.7147 103.476 12.844C103.392 12.9733 103.27 13.0827 103.111 13.1722C102.957 13.2617 102.753 13.314 102.499 13.3289C102.564 13.3637 102.646 13.4184 102.745 13.493C102.845 13.5626 102.947 13.6397 103.051 13.7243C103.161 13.8088 103.26 13.8859 103.35 13.9556C103.439 14.0252 103.509 14.0749 103.558 14.1048C103.737 14.2092 103.897 14.2813 104.036 14.3211C104.175 14.3609 104.29 14.3833 104.379 14.3883C104.469 14.3932 104.521 14.3957 104.536 14.3957L104.386 15C104.342 15.0149 104.267 15.0298 104.163 15.0448C104.058 15.0647 103.936 15.0746 103.797 15.0746ZM101.208 12.6575C101.397 12.6575 101.566 12.655 101.716 12.65C101.865 12.6401 101.999 12.6301 102.119 12.6202C102.337 12.5953 102.489 12.5356 102.574 12.4411C102.663 12.3416 102.708 12.2148 102.708 12.0606V11.889C102.708 11.7299 102.666 11.5956 102.581 11.4862C102.497 11.3768 102.345 11.3221 102.126 11.3221H100.089V12.6202C100.308 12.6351 100.51 12.645 100.694 12.65C100.878 12.655 101.049 12.6575 101.208 12.6575ZM107.319 15C106.971 15 106.698 14.9503 106.499 14.8508C106.3 14.7513 106.158 14.6021 106.073 14.4032C105.994 14.2042 105.954 13.958 105.954 13.6646V11.9413C105.954 11.6528 105.994 11.4116 106.073 11.2176C106.153 11.0187 106.292 10.8695 106.491 10.77C106.69 10.6656 106.966 10.6133 107.319 10.6133H109.498C109.846 10.6133 110.117 10.6656 110.311 10.77C110.51 10.8695 110.649 11.0187 110.729 11.2176C110.813 11.4116 110.856 11.6528 110.856 11.9413V13.6646C110.856 14.1023 110.759 14.4355 110.565 14.6643C110.371 14.8881 110.015 15 109.498 15H107.319ZM107.536 14.2838H109.289C109.473 14.2838 109.615 14.2366 109.714 14.1421C109.819 14.0476 109.871 13.9183 109.871 13.7541V11.8517C109.871 11.7075 109.819 11.5857 109.714 11.4862C109.61 11.3817 109.468 11.3295 109.289 11.3295H107.536C107.357 11.3295 107.212 11.3768 107.103 11.4713C106.994 11.5658 106.939 11.6926 106.939 11.8517V13.7541C106.939 13.9232 106.991 14.055 107.096 14.1495C107.205 14.239 107.352 14.2838 107.536 14.2838ZM112.869 15V11.2102L112.794 10.6133H113.869L116.405 13.2692L116.696 13.6721H116.778V10.6133H117.763V15H116.815L114.219 12.2994L113.928 11.9487H113.854V15H112.869ZM121.278 15L121.27 11.3221H119.331V10.6059H124.21V11.3221H122.263V15H121.278ZM125.779 15V10.6133H130.419V11.3295H126.764V12.359H129.554V13.0976H126.764V14.2838H130.449L130.748 14.9179C130.748 14.9378 130.68 14.9577 130.546 14.9776C130.412 14.9925 130.181 15 129.852 15H125.779ZM132.386 15V11.2102L132.311 10.6133H133.386L135.922 13.2692L136.213 13.6721H136.295V10.6133H137.28V15H136.333L133.736 12.2994L133.445 11.9487H133.371V15H132.386ZM139.37 15V11.2102L139.296 10.6133H142.757C143.16 10.6133 143.468 10.6631 143.682 10.7625C143.901 10.862 144.053 11.0112 144.137 11.2102C144.222 11.4041 144.264 11.6478 144.264 11.9413V13.6646C144.264 13.963 144.222 14.2117 144.137 14.4106C144.058 14.6046 143.909 14.7513 143.69 14.8508C143.476 14.9503 143.165 15 142.757 15H139.37ZM140.355 14.2838H142.697C143.08 14.2838 143.274 14.1072 143.279 13.7541V11.8517C143.279 11.7075 143.237 11.5857 143.153 11.4862C143.068 11.3817 142.916 11.3295 142.697 11.3295H140.355V14.2838Z" fill="#0B050E"/>
</g>
<defs>
<linearGradient id="paint0_linear_13_50" x1="22.1328" y1="2.26306" x2="22.1328" y2="37.6279" gradientUnits="userSpaceOnUse">
<stop stop-color="#783B12"/>
<stop offset="1" stop-color="#493540"/>
</linearGradient>
<linearGradient id="paint1_linear_13_50" x1="73.1352" y1="2.26306" x2="73.1352" y2="37.6279" gradientUnits="userSpaceOnUse">
<stop stop-color="#783B12"/>
<stop offset="1" stop-color="#493540"/>
</linearGradient>
<linearGradient id="paint2_linear_13_50" x1="124.138" y1="2.26306" x2="124.138" y2="37.6279" gradientUnits="userSpaceOnUse">
<stop stop-color="#783B12"/>
<stop offset="1" stop-color="#493540"/>
</linearGradient>
<clipPath id="clip0_13_50">
<rect width="143" height="8" fill="white" transform="translate(4 9)"/>
</clipPath>
</defs>
</svg>
