<svg width="253" height="24" viewBox="0 0 253 24" fill="none" xmlns="http://www.w3.org/2000/svg">
<path d="M5.54221 18C4.59437 18 3.72551 17.9803 2.93564 17.9408C2.15893 17.8881 1.53361 17.8025 1.05969 17.6841C0.598929 17.5656 0.36855 17.401 0.36855 17.1904L1.35589 15.6699C1.73766 15.841 2.26424 15.9595 2.93564 16.0253C3.62019 16.078 4.52196 16.1043 5.64095 16.1043H7.53664C8.15538 16.1043 8.56348 15.9595 8.76095 15.6699C8.95841 15.3671 9.05715 15.0446 9.05715 14.7023V7.96862L8.89917 6.38887H11.6637V14.4653C11.6637 15.1235 11.5782 15.7225 11.407 16.2623C11.249 16.802 10.9133 17.2299 10.3999 17.5458C9.89968 17.8486 9.12955 18 8.08955 18H5.54221ZM18.2416 18C17.3201 18 16.596 17.8684 16.0694 17.6051C15.5428 17.3418 15.1677 16.9468 14.9439 16.4203C14.7332 15.8937 14.6279 15.242 14.6279 14.4653V9.90381C14.6279 9.14026 14.7332 8.50178 14.9439 7.98837C15.1545 7.46178 15.5231 7.06685 16.0497 6.80356C16.5763 6.5271 17.3069 6.38887 18.2416 6.38887H24.0076C24.9292 6.38887 25.6466 6.5271 26.16 6.80356C26.6866 7.06685 27.0552 7.46178 27.2659 7.98837C27.4897 8.50178 27.6016 9.14026 27.6016 9.90381V14.4653C27.6016 15.6238 27.3449 16.5058 26.8314 17.1114C26.318 17.7038 25.3768 18 24.0076 18H18.2416ZM18.8142 16.1043H23.4547C23.9418 16.1043 24.317 15.9792 24.5803 15.7291C24.8568 15.479 24.995 15.1367 24.995 14.7023V9.66684C24.995 9.28507 24.8568 8.96254 24.5803 8.69925C24.3038 8.4228 23.9287 8.28457 23.4547 8.28457H18.8142C18.3403 8.28457 17.9585 8.40963 17.6689 8.65976C17.3793 8.90988 17.2345 9.24558 17.2345 9.66684V14.7023C17.2345 15.1499 17.3727 15.4987 17.6492 15.7489C17.9388 15.9858 18.3271 16.1043 18.8142 16.1043ZM28.5957 18L34.3815 6.38887H38.2716L44.0377 18H40.9967L39.8316 15.4922H32.7623L31.4787 18H28.5957ZM33.4732 13.557H39.101L36.3957 8.16609H36.1982L33.4732 13.557ZM37.7187 5.36204C37.3501 5.36204 37.0276 5.29622 36.7511 5.16457C36.4878 5.01976 36.2509 4.8552 36.0402 4.6709C35.8296 4.4866 35.619 4.32862 35.4083 4.19698C35.2109 4.05217 34.9871 3.97976 34.737 3.97976C34.4078 3.97976 34.1775 4.09824 34.0458 4.3352C33.9273 4.559 33.8352 4.76964 33.7694 4.9671C33.7167 5.12508 33.6245 5.23698 33.4929 5.3028C33.3613 5.35546 33.2362 5.34229 33.1177 5.2633C33.0124 5.18432 32.9597 5.02634 32.9597 4.78938C32.9597 4.21014 33.1243 3.70331 33.4534 3.26888C33.7957 2.82128 34.2894 2.59749 34.9344 2.59749C35.303 2.59749 35.6124 2.66989 35.8625 2.8147C36.1258 2.94635 36.3562 3.10432 36.5537 3.28862C36.7643 3.47293 36.9749 3.63748 37.1856 3.78229C37.4094 3.91394 37.6595 3.97976 37.9359 3.97976C38.2387 3.97976 38.4625 3.86786 38.6073 3.64407C38.7521 3.4071 38.8509 3.18989 38.9035 2.99242C38.9562 2.82128 39.0418 2.70938 39.1602 2.65673C39.2919 2.5909 39.4169 2.59748 39.5354 2.67647C39.6539 2.75546 39.7131 2.92002 39.7131 3.17014C39.7131 3.52559 39.6407 3.87445 39.4959 4.21672C39.3643 4.54584 39.1471 4.82229 38.8443 5.04609C38.5547 5.25672 38.1795 5.36204 37.7187 5.36204ZM48.6524 18C47.7309 18 47.0069 17.8684 46.4803 17.6051C45.9537 17.3418 45.5785 16.9468 45.3547 16.4203C45.1441 15.8937 45.0388 15.242 45.0388 14.4653V9.90381C45.0388 9.14026 45.1441 8.50178 45.3547 7.98837C45.5654 7.46178 45.934 7.06685 46.4605 6.80356C46.9871 6.5271 47.7178 6.38887 48.6524 6.38887H54.4185C55.34 6.38887 56.0575 6.5271 56.5709 6.80356C57.0975 7.06685 57.4661 7.46178 57.6767 7.98837C57.9005 8.50178 58.0124 9.14026 58.0124 9.90381V14.4653C58.0124 15.6238 57.7557 16.5058 57.2423 17.1114C56.7289 17.7038 55.7876 18 54.4185 18H48.6524ZM49.2251 16.1043H53.8656C54.3527 16.1043 54.7279 15.9792 54.9912 15.7291C55.2676 15.479 55.4058 15.1367 55.4058 14.7023V9.66684C55.4058 9.28507 55.2676 8.96254 54.9912 8.69925C54.7147 8.4228 54.3395 8.28457 53.8656 8.28457H49.2251C48.7512 8.28457 48.3694 8.40963 48.0798 8.65976C47.7902 8.90988 47.6454 9.24558 47.6454 9.66684V14.7023C47.6454 15.1499 47.7836 15.4987 48.06 15.7489C48.3497 15.9858 48.738 16.1043 49.2251 16.1043ZM65.5083 18V7.96862L65.3109 6.36913H74.0587C74.9013 6.36913 75.5595 6.48103 76.0334 6.70482C76.5205 6.92862 76.8759 7.22482 77.0997 7.59343C77.3367 7.94887 77.4881 8.33064 77.5539 8.73874C77.6197 9.14685 77.6526 9.5352 77.6526 9.90381V11.0689C77.6526 11.3717 77.6066 11.7139 77.5144 12.0957C77.4223 12.4643 77.2511 12.8263 77.001 13.1818C76.7509 13.5241 76.3888 13.8137 75.9149 14.0506C75.441 14.2744 74.8223 14.3863 74.0587 14.3863H72.0445C71.2152 14.3863 70.4385 14.3666 69.7144 14.3271C69.0035 14.2876 68.4704 14.2547 68.1149 14.2284V18H65.5083ZM68.1149 12.4906H73.4861C74.0785 12.4906 74.4866 12.3458 74.7104 12.0562C74.9342 11.7666 75.0461 11.4177 75.0461 11.0096V9.76558C75.0461 9.34431 74.9342 8.98887 74.7104 8.69925C74.4866 8.40963 74.085 8.26482 73.5058 8.26482H68.1149V12.4906ZM77.6542 18L83.44 6.38887H87.3301L93.0962 18H90.0552L88.8901 15.4922H81.8208L80.5372 18H77.6542ZM82.5316 13.557H88.1595L85.4542 8.16609H85.2567L82.5316 13.557ZM97.6029 18.1975C96.405 18.1975 95.569 17.8749 95.0951 17.2299C94.6212 16.5848 94.3842 15.7291 94.3842 14.6628V6.38887H96.9908V14.7418C96.9908 15.3605 97.1422 15.7752 97.445 15.9858C97.7477 16.1965 98.1229 16.3018 98.5705 16.3018H102.757C103.178 16.3018 103.547 16.1965 103.863 15.9858C104.179 15.762 104.337 15.3473 104.337 14.7418V6.38887H106.943V14.6628C106.943 15.3737 106.844 15.9924 106.647 16.519C106.45 17.0456 106.12 17.4603 105.66 17.763C105.199 18.0527 104.56 18.1975 103.744 18.1975H97.6029ZM109.799 18L109.997 16.4203V6.38887H112.603V16.1043H120.778L121.568 17.7828C121.568 17.8354 121.39 17.8881 121.035 17.9408C120.68 17.9803 120.067 18 119.199 18H109.799ZM126.753 18C125.831 18 125.107 17.8684 124.58 17.6051C124.054 17.3418 123.679 16.9468 123.455 16.4203C123.244 15.8937 123.139 15.242 123.139 14.4653V9.90381C123.139 9.14026 123.244 8.50178 123.455 7.98837C123.666 7.46178 124.034 7.06685 124.561 6.80356C125.087 6.5271 125.818 6.38887 126.753 6.38887H132.519C133.44 6.38887 134.158 6.5271 134.671 6.80356C135.198 7.06685 135.566 7.46178 135.777 7.98837C136.001 8.50178 136.113 9.14026 136.113 9.90381V14.4653C136.113 15.6238 135.856 16.5058 135.342 17.1114C134.829 17.7038 133.888 18 132.519 18H126.753ZM127.325 16.1043H131.966C132.453 16.1043 132.828 15.9792 133.091 15.7291C133.368 15.479 133.506 15.1367 133.506 14.7023V9.66684C133.506 9.28507 133.368 8.96254 133.091 8.69925C132.815 8.4228 132.44 8.28457 131.966 8.28457H127.325C126.851 8.28457 126.47 8.40963 126.18 8.65976C125.89 8.90988 125.746 9.24558 125.746 9.66684V14.7023C125.746 15.1499 125.884 15.4987 126.16 15.7489C126.45 15.9858 126.838 16.1043 127.325 16.1043ZM143.609 18V7.96862L143.411 6.38887H146.413L150.875 14.2876L155.496 6.38887H158.162V18H155.555V10.6344H155.338L154.568 12.3524L152.08 16.8152H149.691L147.202 12.3524L146.413 10.6344H146.215V18H143.609ZM159.746 18L165.532 6.38887H169.422L175.188 18H172.147L170.982 15.4922H163.913L162.629 18H159.746ZM164.624 13.557H170.251L167.546 8.16609H167.349L164.624 13.557ZM179.803 18C178.868 18 178.138 17.8684 177.611 17.6051C177.084 17.3418 176.716 16.9468 176.505 16.4203C176.295 15.8937 176.189 15.242 176.189 14.4653V10.0618C176.189 8.79798 176.472 7.86988 177.038 7.27748C177.604 6.67191 178.526 6.36913 179.803 6.36913H185.747C186.655 6.36913 187.346 6.42178 187.82 6.5271C188.307 6.61925 188.551 6.71799 188.551 6.8233L188.156 8.46229C187.932 8.4228 187.267 8.3833 186.161 8.34381C185.069 8.29115 183.476 8.26482 181.383 8.26482H180.376C179.322 8.26482 178.796 8.73216 178.796 9.66684V14.7023C178.796 15.1499 178.908 15.4987 179.132 15.7489C179.368 15.9858 179.783 16.1043 180.376 16.1043H181.185C183.37 16.1043 185.062 16.0846 186.26 16.0451C187.471 15.9924 188.222 15.9397 188.511 15.8871L189.321 17.1904C189.321 17.2562 189.209 17.3549 188.985 17.4866C188.775 17.6182 188.38 17.7367 187.8 17.842C187.221 17.9473 186.385 18 185.293 18H179.803ZM191.293 18V6.38887H193.9V11.2071H201.641V6.38887H204.247V18H201.641V13.1028H193.9V18H191.293ZM205.835 18L211.621 6.38887H215.511L221.277 18H218.236L217.071 15.4922H210.001L208.718 18H205.835ZM210.712 13.557H216.34L213.635 8.16609H213.437L210.712 13.557ZM223.059 18V7.96862L222.861 6.38887H232.024C233.09 6.38887 233.906 6.52052 234.472 6.78381C235.051 7.0471 235.453 7.44204 235.677 7.96862C235.901 8.48204 236.013 9.1271 236.013 9.90381V14.4653C236.013 15.2552 235.901 15.9134 235.677 16.44C235.466 16.9534 235.071 17.3418 234.492 17.6051C233.926 17.8684 233.103 18 232.024 18H223.059ZM225.665 16.1043H231.866C232.879 16.1043 233.393 15.637 233.406 14.7023V9.66684C233.406 9.28507 233.294 8.96254 233.07 8.69925C232.846 8.4228 232.445 8.28457 231.866 8.28457H225.665V16.1043ZM242.187 18C241.265 18 240.541 17.8684 240.014 17.6051C239.488 17.3418 239.113 16.9468 238.889 16.4203C238.678 15.8937 238.573 15.242 238.573 14.4653V9.90381C238.573 9.14026 238.678 8.50178 238.889 7.98837C239.1 7.46178 239.468 7.06685 239.995 6.80356C240.521 6.5271 241.252 6.38887 242.187 6.38887H247.953C248.874 6.38887 249.592 6.5271 250.105 6.80356C250.632 7.06685 251 7.46178 251.211 7.98837C251.435 8.50178 251.547 9.14026 251.547 9.90381V14.4653C251.547 15.6238 251.29 16.5058 250.776 17.1114C250.263 17.7038 249.322 18 247.953 18H242.187ZM242.759 16.1043H247.4C247.887 16.1043 248.262 15.9792 248.525 15.7291C248.802 15.479 248.94 15.1367 248.94 14.7023V9.66684C248.94 9.28507 248.802 8.96254 248.525 8.69925C248.249 8.4228 247.874 8.28457 247.4 8.28457H242.759C242.285 8.28457 241.904 8.40963 241.614 8.65976C241.324 8.90988 241.18 9.24558 241.18 9.66684V14.7023C241.18 15.1499 241.318 15.4987 241.594 15.7489C241.884 15.9858 242.272 16.1043 242.759 16.1043Z" fill="#FCFCFC"/>
</svg>
